<svg aria-hidden="true" style="width:0;height:0;position:absolute;overflow:hidden" xmlns="http://www.w3.org/2000/svg"><defs><symbol id="facebook" viewBox="0 0 16 32"><path d="M14.143 15.971H10.11v14.865H3.998V15.971H1.092v-5.222h2.906V7.367c0-2.417 1.142-6.204 6.167-6.204l4.527.019v5.072h-3.284c-.538 0-1.297.272-1.297 1.425v3.073h4.567l-.534 5.219z"/></symbol><symbol id="github" viewBox="0 0 32 32"><path d="M16 0C7.211 0 0 7.211 0 16c0 7.499 5.262 14.312 12.25 16v-5.293a3.921 3.921 0 0 1-2.062-.06l.028.007c-.946-.278-1.714-.909-2.285-1.869-.363-.613-1.008-1.28-1.68-1.23l-.165-1.867c1.454-.125 2.71.886 3.456 2.139.333.558.715.885 1.205 1.029.472.141.981.074 1.573-.136.149-1.186.693-1.629 1.104-2.256-4.168-.621-5.829-2.832-6.488-4.576-.874-2.318-.405-5.213 1.139-7.043.03-.035.085-.128.064-.192-.709-2.141.154-3.91.186-4.098.818.24.95-.243 3.552 1.336l.448.27c.189.112.128.048.317.032a13.246 13.246 0 0 1 3.349-.469h.01c1.136.014 2.272.176 3.403.483l.146.016c-.013-.003.04-.01.128-.062 3.248-1.968 3.131-1.325 4.003-1.608.032.189.882 1.987.182 4.099-.096.291 2.816 2.957 1.202 7.235-.659 1.744-2.32 3.957-6.486 4.578.534.816 1.176 1.248 1.173 2.928v6.606c6.986-1.688 12.25-8.501 12.25-16 0-8.789-7.211-16-16-16z"/></symbol><symbol id="telegram" viewBox="0 0 44 32"><path d="m17.342 21.048-.674 8.86c.966 0 1.384-.388 1.886-.852l4.526-4.04 9.38 6.414c1.72.894 2.934.422 3.398-1.478L42.016 3.02c.546-2.374-.92-3.302-2.594-2.72L3.226 13.234C.756 14.13.794 15.414 2.808 16l9.252 2.684L33.554 6.132c1.012-.626 1.932-.28 1.174.346l-17.386 14.57z"/></symbol><symbol id="mobile-menu-open" viewBox="0 0 32 32"><path d="M6.4 11.733V9.6h19.2v2.133H6.4zm0 5.334h19.2v-2.133H6.4v2.133zm0 5.333h19.2v-2.133H6.4V22.4z"/></symbol><symbol id="close-btn" viewBox="0 0 32 32"><path d="m17.253 16 7.37-7.37a.89.89 0 0 0-1.256-1.252l.001-.001L16 14.747 8.63 7.369a.893.893 0 0 0-1.262 1.262l-.001-.001L14.745 16l-7.376 7.368a.89.89 0 1 0 1.252 1.256l.001-.001 7.376-7.37 7.37 7.37a.89.89 0 0 0 1.254-1.256l.001.001L17.253 16z"/></symbol><symbol id="arrow-up" viewBox="0 0 32 32"><path d="m27.414 12.586-10-10a2 2 0 0 0-2.828 0l-10 10a2 2 0 1 0 2.828 2.828L14 8.828V28a2 2 0 1 0 4 0V8.828l6.586 6.586c.39.39.902.586 1.414.586s1.024-.195 1.414-.586a2 2 0 0 0 0-2.828z"/></symbol><symbol id="btn-arrow" viewBox="0 0 19 32"><path d="M4.422 31.245a2.595 2.595 0 0 1-3.66-3.678l11.595-11.566L.762 4.434A2.595 2.595 0 0 1 4.422.756l13.449 13.415a2.595 2.595 0 0 1-.009 3.669L4.423 31.246z"/></symbol></defs></svg>